<?xml version="1.0" encoding="UTF-8" standalone="no"?>
<!DOCTYPE svg PUBLIC "-//W3C//DTD SVG 1.1//EN" "http://www.w3.org/Graphics/SVG/1.1/DTD/svg11.dtd">
<svg width="100%" height="100%" viewBox="0 0 626 188" version="1.1" xmlns="http://www.w3.org/2000/svg" xmlns:xlink="http://www.w3.org/1999/xlink" xml:space="preserve" xmlns:serif="http://www.serif.com/" style="fill-rule:evenodd;clip-rule:evenodd;stroke-linejoin:round;stroke-miterlimit:2;">
    <g>
        <path d="M253.693,89.443C253.693,82.425 254.505,76.285 256.131,70.98C257.778,65.696 259.875,61.481 262.443,58.336C265.011,55.19 268.112,52.624 271.749,50.634C275.386,48.665 278.959,47.34 282.468,46.676C285.997,46.013 289.741,45.671 293.764,45.671C297.764,45.671 301.487,46.013 304.974,46.676C308.44,47.34 311.992,48.665 315.628,50.634C319.244,52.624 322.367,55.19 324.977,58.336C327.609,61.481 329.726,65.716 331.353,71C332.978,76.307 333.792,82.447 333.792,89.463C333.792,95.775 333.129,101.401 331.781,106.301C330.454,111.179 328.699,115.222 326.517,118.388C324.357,121.554 321.726,124.186 318.623,126.326C315.543,128.443 312.44,129.983 309.317,130.968C306.215,131.952 302.857,132.615 299.262,132.937C299.262,136.852 300.695,139.697 303.583,141.473C306.472,143.248 309.916,144.125 313.896,144.125L313.896,156.191C295.668,156.191 286.554,148.404 286.554,132.808C282.126,132.23 278.082,131.139 274.445,129.513C270.808,127.888 267.363,125.469 264.112,122.282C260.838,119.095 258.293,114.708 256.453,109.104C254.613,103.478 253.693,96.931 253.693,89.443ZM271.001,73.59C269.738,77.74 269.097,83.045 269.097,89.463C269.097,95.861 269.738,101.166 271.001,105.317C272.284,109.488 274.188,112.59 276.713,114.601C279.259,116.634 281.805,117.961 284.372,118.624C286.938,119.308 290.062,119.63 293.742,119.63C297.336,119.63 300.46,119.308 303.07,118.624C305.68,117.961 308.248,116.634 310.771,114.601C313.297,112.59 315.201,109.488 316.484,105.317C317.746,101.166 318.388,95.861 318.388,89.463C318.388,83.045 317.746,77.74 316.484,73.59C315.201,69.418 313.297,66.337 310.771,64.304C308.248,62.294 305.68,60.946 303.07,60.283C300.46,59.619 297.336,59.277 293.742,59.277C290.062,59.277 286.938,59.619 284.372,60.283C281.805,60.946 279.259,62.294 276.713,64.304C274.188,66.337 272.284,69.418 271.001,73.59ZM345.079,103.305L345.079,68.262L360.482,68.262L360.482,105.295C360.482,110.409 361.531,114.11 363.628,116.356C365.724,118.602 369.148,119.737 373.897,119.737C378.731,119.737 382.197,118.602 384.295,116.356C386.39,114.11 387.439,110.409 387.439,105.295L387.439,68.262L402.842,68.262L402.842,103.305C402.842,112.719 400.296,120.078 395.205,125.385C390.113,130.689 383.01,133.343 373.897,133.343C364.783,133.343 357.701,130.689 352.652,125.385C347.603,120.078 345.079,112.719 345.079,103.305ZM419.649,59.534L419.649,45.414L435.437,45.414L435.437,59.534L419.649,59.534ZM419.906,132.316L419.906,68.262L435.309,68.262L435.309,132.316L419.906,132.316ZM447.837,132.316L447.837,118.067L477.338,82.126L448.456,82.126L448.456,68.262L497.15,68.262L497.15,82.383L467.198,118.452L497.15,118.452L497.15,132.316L447.837,132.316ZM511.132,103.305L511.132,68.262L526.535,68.262L526.535,105.295C526.535,110.409 527.584,114.11 529.681,116.356C531.776,118.602 535.2,119.737 539.95,119.737C544.784,119.737 548.25,118.602 550.347,116.356C552.443,114.11 553.492,110.409 553.492,105.295L553.492,68.262L568.895,68.262L568.895,103.305C568.895,112.719 566.349,120.078 561.258,125.385C556.166,130.689 549.063,133.343 539.95,133.343C530.835,133.343 523.754,130.689 518.705,125.385C513.656,120.078 511.132,112.719 511.132,103.305ZM579.669,87.261C579.669,80.821 581.937,75.856 586.451,72.412C590.987,68.968 596.634,67.236 603.395,67.236C609.749,67.236 615.569,68.754 620.873,71.814L620.873,83.538C616.531,81.484 611.589,80.457 606.09,80.457C598.753,80.457 595.073,82.254 595.073,85.87C595.073,87.667 596.121,89.101 598.196,90.127C600.293,91.154 602.839,92.053 605.834,92.823C608.851,93.615 611.845,94.663 614.819,95.968C617.815,97.294 620.36,99.541 622.457,102.686C624.575,105.83 625.623,109.831 625.623,114.708C625.623,120.057 623.441,124.506 619.077,128.037C614.712,131.567 608.957,133.343 601.769,133.343C594.431,133.343 587.67,131.61 581.487,128.123L581.487,114.452C587.115,118.239 593.147,120.121 599.587,120.121C603.995,120.121 606.882,119.608 608.209,118.581C609.556,117.555 610.22,116.013 610.22,113.96C610.22,112.056 609.171,110.537 607.053,109.381C604.956,108.227 602.411,107.22 599.416,106.365C596.442,105.509 593.447,104.483 590.473,103.305C587.478,102.129 584.933,100.204 582.836,97.486C580.717,94.769 579.669,91.367 579.669,87.261Z" style="fill:white;fill-rule:nonzero;"/>
        <path d="M73.182,16.18L121.086,16.18C130.897,16.18 140.078,18.995 147.858,23.852C148.452,24.222 149.162,24.217 149.75,23.837C150.338,23.457 150.635,22.812 150.541,22.119C150.434,21.327 150.379,20.519 150.379,19.697C150.379,9.779 158.42,1.738 168.338,1.738C178.255,1.738 186.297,9.779 186.297,19.697C186.297,29.615 178.255,37.656 168.338,37.656C167.516,37.656 166.708,37.6 165.916,37.494C165.222,37.4 164.578,37.697 164.198,38.285C163.818,38.873 163.812,39.583 164.183,40.177C169.039,47.957 171.854,57.137 171.854,66.949L171.854,114.853L155.447,110.456C148.411,108.573 143.685,102.413 143.685,95.13L143.685,66.949C143.685,60.751 141.136,55.101 137.035,51C132.934,46.899 127.283,44.35 121.086,44.35L92.904,44.35C85.622,44.35 79.462,39.623 77.578,32.588L73.182,16.18Z" style="fill:rgb(134,106,251);fill-rule:nonzero;"/>
        <path d="M186.523,76.129L186.523,121.054C186.523,131.711 183.947,141.789 179.388,150.7L184.18,168.582L187.499,180.969C188.002,182.849 187.503,184.715 186.126,186.092C184.749,187.469 182.886,187.967 181.004,187.465L168.619,184.147L150.738,179.354C141.826,183.916 131.744,186.493 121.084,186.493L76.16,186.493C74.457,186.493 72.991,185.769 71.953,184.417C70.915,183.066 70.597,181.462 71.038,179.818L76.798,158.323L121.086,158.323C127.175,158.323 132.94,156.836 138.033,154.208C140.468,152.952 142.98,152.682 145.625,153.391L156.276,156.244L153.421,145.59C152.712,142.945 152.982,140.433 154.238,137.998C156.865,132.905 158.354,127.141 158.354,121.054L158.354,76.768L179.848,71.008C181.493,70.567 183.096,70.885 184.448,71.923C185.8,72.96 186.523,74.426 186.523,76.129Z" style="fill:rgb(254,70,108);fill-rule:nonzero;"/>
        <path d="M66.981,1.511L111.905,1.511C113.608,1.511 115.074,2.235 116.112,3.587C117.15,4.938 117.468,6.542 117.027,8.187L111.267,29.681L66.981,29.681C60.892,29.681 55.128,31.166 50.035,33.794C47.6,35.05 45.088,35.32 42.442,34.612L31.791,31.758L34.644,42.412C35.353,45.057 35.081,47.569 33.825,50.002C31.196,55.095 29.712,60.862 29.712,66.948L29.712,111.236L8.217,116.997C6.572,117.438 4.969,117.119 3.617,116.082C2.266,115.044 1.542,113.578 1.542,111.875L1.542,66.95C1.542,56.293 4.118,46.211 8.679,37.3L3.886,19.418L0.569,7.03C0.065,5.151 0.565,3.285 1.941,1.909C3.318,0.532 5.183,0.033 7.063,0.536L19.449,3.855L37.333,8.646C46.242,4.088 56.323,1.511 66.981,1.511Z" style="fill:rgb(6,203,173);fill-rule:nonzero;"/>
        <path d="M114.887,171.819L66.983,171.823C57.19,171.823 48.007,168.994 40.211,164.109C39.616,163.736 38.905,163.74 38.317,164.121C37.728,164.502 37.431,165.148 37.526,165.843C37.637,166.646 37.693,167.465 37.693,168.299C37.693,178.22 29.651,186.26 19.734,186.26C9.817,186.26 1.775,178.218 1.775,168.301C1.775,158.384 9.814,150.342 19.736,150.342C20.568,150.342 21.389,150.398 22.192,150.508C22.886,150.604 23.533,150.307 23.914,149.718C24.294,149.13 24.298,148.419 23.926,147.824C19.041,140.027 16.215,130.844 16.215,121.052L16.215,73.149L32.625,77.548C39.66,79.434 44.385,85.592 44.385,92.874L44.385,121.052C44.385,127.286 46.911,132.932 50.979,137L51.035,137.056C55.103,141.123 60.749,143.65 66.983,143.65L95.163,143.65C102.445,143.65 108.605,148.375 110.489,155.41L114.887,171.819Z" style="fill:rgb(246,205,1);fill-rule:nonzero;"/>
        <path d="M114.885,171.819L73.184,171.819L76.8,158.323L111.269,158.323L114.885,171.819Z" style="fill:rgb(247,113,72);fill-rule:nonzero;"/>
        <path d="M29.712,76.766L29.712,111.236L16.215,114.853L16.215,73.149L29.712,76.766Z" style="fill:rgb(27,186,24);fill-rule:nonzero;"/>
        <path d="M111.269,29.681L76.798,29.681L73.182,16.18L114.885,16.18L111.269,29.681Z" style="fill:rgb(52,126,150);fill-rule:nonzero;"/>
        <path d="M55.898,73.694C46.052,73.694 38.071,65.711 38.071,55.867C38.071,46.02 46.052,38.038 55.898,38.038C65.743,38.038 73.726,46.02 73.726,55.867C73.726,65.711 65.743,73.694 55.898,73.694Z" style="fill:rgb(6,203,173);fill-rule:nonzero;"/>
        <path d="M132.225,114.365C142.07,114.365 150.053,122.348 150.053,132.194C150.053,142.038 142.07,150.021 132.225,150.021C122.38,150.021 114.398,142.038 114.398,132.194C114.398,122.348 122.38,114.365 132.225,114.365Z" style="fill:rgb(254,70,108);fill-rule:nonzero;"/>
        <path d="M171.854,73.149L171.854,114.853L158.354,111.236L158.354,76.768L171.854,73.149Z" style="fill:rgb(161,61,134);fill-rule:nonzero;"/>
    </g>
</svg>
